<svg width="24" height="24" viewBox="0 0 24 24" fill="none" xmlns="http://www.w3.org/2000/svg">
<path d="M3 21C3 21.416 3.144 21.776 3.432 22.08C3.72 22.384 4.08 22.528 4.512 22.512H19.512C19.912 22.512 20.264 22.368 20.568 22.08C20.872 21.792 21.016 21.432 21 21C21 20.28 20.832 19.552 20.496 18.816C20.16 18.08 19.72 17.424 19.176 16.848C18.632 16.272 18.008 15.736 17.304 15.24C16.6 14.744 15.88 14.368 15.144 14.112C16.024 13.568 16.72 12.84 17.232 11.928C17.744 11.016 18 10.04 18 8.99996V7.51196C18 5.84796 17.416 4.43196 16.248 3.26396C15.08 2.09596 13.664 1.51196 12 1.51196C10.336 1.51196 8.92 2.09596 7.752 3.26396C6.584 4.43196 6 5.84796 6 7.51196V8.99996C6 10.056 6.256 11.032 6.768 11.928C7.28 12.824 7.976 13.552 8.856 14.112C8.104 14.384 7.384 14.76 6.696 15.24C6.008 15.72 5.384 16.256 4.824 16.848C4.264 17.44 3.824 18.096 3.504 18.816C3.184 19.536 3.016 20.264 3 21Z" fill="#4E5053"/>
</svg>
