<svg width="24" height="24" viewBox="0 0 24 24" fill="none" xmlns="http://www.w3.org/2000/svg">
<g clip-path="url(#clip0_2318_2280)">
<path d="M8.03125 24C10.2393 24 12.0312 22.208 12.0312 20V16H8.03125C5.82325 16 4.03125 17.792 4.03125 20C4.03125 22.208 5.82325 24 8.03125 24Z" fill="#0ACF83"/>
<path d="M4.03125 12C4.03125 9.792 5.82325 8 8.03125 8H12.0312V16H8.03125C5.82325 16 4.03125 14.208 4.03125 12Z" fill="#A259FF"/>
<path d="M4.03125 4C4.03125 1.792 5.82325 0 8.03125 0H12.0312V8H8.03125C5.82325 8 4.03125 6.208 4.03125 4Z" fill="#F24E1E"/>
<path d="M12.0312 0H16.0312C18.2393 0 20.0312 1.792 20.0312 4C20.0312 6.208 18.2393 8 16.0312 8H12.0312V0Z" fill="#FF7262"/>
<path d="M20.0312 12C20.0312 14.208 18.2393 16 16.0312 16C13.8233 16 12.0312 14.208 12.0312 12C12.0312 9.792 13.8233 8 16.0312 8C18.2393 8 20.0312 9.792 20.0312 12Z" fill="#1ABCFE"/>
</g>
<defs>
<clipPath id="clip0_2318_2280">
<rect width="24" height="24" fill="white"/>
</clipPath>
</defs>
</svg>
