<svg width="24" height="24" viewBox="0 0 24 24" fill="none" xmlns="http://www.w3.org/2000/svg">
<path d="M3.28125 19.372L3.42654 19.1686L10.2995 6.1274L10.3141 5.98934L7.28429 0.298386C7.03045 -0.178334 6.31585 -0.0578025 6.23255 0.475849L3.28125 19.372Z" fill="#FFC24A"/>
<path d="M3.36719 19.2169L3.4771 19.0026L10.2781 6.098L7.25589 0.383895C7.00472 -0.0878299 6.36688 0.0324225 6.28445 0.560482L3.36719 19.2169Z" fill="#FFA712"/>
<path d="M12.5229 10.294L14.7788 7.98362L12.5223 3.67587C12.3081 3.26812 11.71 3.26694 11.498 3.67587L10.2925 5.97512V6.17094L12.5229 10.294Z" fill="#F4BD62"/>
<path d="M12.4824 10.1977L14.6755 7.9516L12.4824 3.7755C12.2741 3.37908 11.7682 3.33755 11.5622 3.73511L10.3502 6.06998L10.314 6.18934L12.4824 10.1977Z" fill="#FFA50E"/>
<path d="M3.28125 19.372L3.34711 19.3058L3.58639 19.2085L12.381 10.4466L12.4925 10.1433L10.2986 5.96259L3.28125 19.372Z" fill="#F6820C"/>
<path d="M12.8045 23.7909L20.7638 19.3519L18.4909 5.35364C18.4198 4.91567 17.8825 4.74253 17.569 5.05656L3.28125 19.372L11.195 23.7905C11.6951 24.0697 12.3042 24.0698 12.8045 23.7909Z" fill="#FDE068"/>
<path d="M20.6926 19.3146L18.4369 5.42268C18.3664 4.98804 17.9196 4.80818 17.6085 5.11983L3.36963 19.3448L11.1964 23.7195C11.6927 23.9967 12.2972 23.9968 12.7937 23.7199L20.6926 19.3146Z" fill="#FCCA3F"/>
<path d="M12.8045 23.6601C12.3042 23.9391 11.6951 23.9389 11.195 23.6597L3.34499 19.3047L3.28125 19.372L11.195 23.7905C11.6951 24.0697 12.3042 24.0698 12.8045 23.7909L20.7638 19.3519L20.7443 19.2319L12.8045 23.6601Z" fill="#EEAB37"/>
</svg>
