<svg width="24" height="24" viewBox="0 0 24 24" fill="none" xmlns="http://www.w3.org/2000/svg">
<g clip-path="url(#clip0_2340_14)">
<path fill-rule="evenodd" clip-rule="evenodd" d="M23.5473 10.9309L13.0686 0.452676C12.4655 -0.150892 11.4867 -0.150892 10.8829 0.452676L8.707 2.62863L11.4672 5.38893C12.1087 5.1722 12.8442 5.31756 13.3556 5.82896C13.8694 6.34352 14.0137 7.08534 13.7917 7.72894L16.4519 10.3892C17.0954 10.1674 17.838 10.311 18.3521 10.8258C19.0704 11.5439 19.0704 12.7078 18.3521 13.4265C17.6334 14.1451 16.4695 14.1451 15.7506 13.4265C15.2102 12.8856 15.0767 12.0919 15.3503 11.4262L12.8695 8.94529L12.8692 15.4739C13.0443 15.5608 13.2097 15.6764 13.3556 15.8218C14.074 16.5399 14.074 17.7039 13.3556 18.4231C12.637 19.1414 11.4725 19.1414 10.7549 18.4231C10.0366 17.7039 10.0366 16.5399 10.7549 15.8218C10.9324 15.6446 11.1378 15.5105 11.3569 15.4205V8.831C11.1378 8.74147 10.9327 8.60822 10.7549 8.42968C10.2106 7.88615 10.0798 7.08745 10.3586 6.4191L7.63787 3.69778L0.452865 10.8824C-0.150955 11.4865 -0.150955 12.4653 0.452865 13.0689L10.9316 23.5473C11.5349 24.1509 12.5135 24.1509 13.1175 23.5473L23.5473 13.1176C24.1509 12.5138 24.1509 11.5344 23.5473 10.9309" fill="#DE4C36"/>
</g>
<defs>
<clipPath id="clip0_2340_14">
<rect width="24" height="24" fill="white"/>
</clipPath>
</defs>
</svg>
