<svg width="24" height="24" viewBox="0 0 24 24" fill="none" xmlns="http://www.w3.org/2000/svg">
<g clip-path="url(#clip0_2318_2234)">
<path fill-rule="evenodd" clip-rule="evenodd" d="M0 0H24V24H0V0Z" fill="#F7DF1E"/>
<path fill-rule="evenodd" clip-rule="evenodd" d="M6.31046 20.0561L8.14711 18.9446C8.50143 19.5729 8.82376 20.1044 9.5969 20.1044C10.338 20.1044 10.8052 19.8145 10.8052 18.6869V11.0183H13.0606V18.7188C13.0606 21.0548 11.6913 22.118 9.69359 22.118C7.88936 22.118 6.84204 21.1836 6.31042 20.0559" fill="black"/>
<path fill-rule="evenodd" clip-rule="evenodd" d="M14.2857 19.8144L16.1221 18.7512C16.6056 19.5407 17.2339 20.1206 18.3454 20.1206C19.2799 20.1206 19.8758 19.6533 19.8758 19.0089C19.8758 18.2356 19.2637 17.9617 18.2326 17.5108L17.6689 17.269C16.0417 16.5764 14.9622 15.7064 14.9622 13.8698C14.9622 12.1782 16.251 10.8893 18.2649 10.8893C19.6987 10.8893 20.7298 11.3888 21.4708 12.6938L19.7147 13.8214C19.3281 13.1287 18.9093 12.8549 18.2649 12.8549C17.6044 12.8549 17.1855 13.2738 17.1855 13.8214C17.1855 14.4981 17.6044 14.772 18.5709 15.1909L19.1347 15.4325C21.0519 16.2542 22.1313 17.0919 22.1313 18.9767C22.1313 21.0067 20.5364 22.1182 18.3938 22.1182C16.2995 22.1182 14.9462 21.1194 14.2857 19.8144" fill="black"/>
</g>
<defs>
<clipPath id="clip0_2318_2234">
<rect width="24" height="24" fill="white"/>
</clipPath>
</defs>
</svg>
