<svg width="24" height="24" viewBox="0 0 24 24" fill="none" xmlns="http://www.w3.org/2000/svg">
<g clip-path="url(#clip0_2339_14)">
<path d="M11.8848 0.09375C5.80678 0.0937504 6.18633 2.72955 6.18633 2.72955L6.19311 5.46021H11.9932V6.28009H3.88933C3.88933 6.28009 0 5.839 0 11.9718C-4.335e-07 18.1046 3.39469 17.8871 3.39469 17.8871H5.42067V15.0412C5.42067 15.0412 5.31146 11.6465 8.76115 11.6465H14.5138C14.5138 11.6465 17.7459 11.6988 17.7459 8.52289V3.27162C17.7459 3.27162 18.2366 0.09375 11.8848 0.09375ZM8.68662 1.93C9.26369 1.93 9.7301 2.39641 9.7301 2.97348C9.7301 3.55055 9.26369 4.01696 8.68662 4.01696C8.10955 4.01696 7.64314 3.55055 7.64314 2.97348C7.64314 2.39641 8.10955 1.93 8.68662 1.93Z" fill="url(#paint0_linear_2339_14)"/>
<path d="M12.0574 23.9113C18.1354 23.9113 17.7559 21.2755 17.7559 21.2755L17.7491 18.5449H11.949V17.725H20.0529C20.0529 17.725 23.9422 18.1661 23.9422 12.0333C23.9422 5.90049 20.5475 6.11797 20.5475 6.11797H18.5215V8.96382C18.5215 8.96382 18.6307 12.3585 15.181 12.3585H9.42836C9.42836 12.3585 6.19629 12.3063 6.19629 15.4822V20.7334C6.19629 20.7334 5.70557 23.9113 12.0574 23.9113ZM15.2556 22.0751C14.6785 22.0751 14.2121 21.6087 14.2121 21.0316C14.2121 20.4545 14.6785 19.9881 15.2556 19.9881C15.8326 19.9881 16.2991 20.4545 16.2991 21.0316C16.2991 21.6087 15.8326 22.0751 15.2556 22.0751Z" fill="url(#paint1_linear_2339_14)"/>
</g>
<defs>
<linearGradient id="paint0_linear_2339_14" x1="2.30089" y1="2.23607" x2="14.1658" y2="13.9826" gradientUnits="userSpaceOnUse">
<stop stop-color="#387EB8"/>
<stop offset="1" stop-color="#366994"/>
</linearGradient>
<linearGradient id="paint1_linear_2339_14" x1="9.58353" y1="9.77894" x2="22.3252" y2="21.824" gradientUnits="userSpaceOnUse">
<stop stop-color="#FFE052"/>
<stop offset="1" stop-color="#FFC331"/>
</linearGradient>
<clipPath id="clip0_2339_14">
<rect width="24" height="24" fill="white"/>
</clipPath>
</defs>
</svg>
