<svg width="24" height="24" viewBox="0 0 24 24" fill="none" xmlns="http://www.w3.org/2000/svg">
<g clip-path="url(#clip0_2318_2266)">
<path d="M14.8106 14.6238L14.3502 15.4231C14.2115 15.6639 13.9548 15.8124 13.6769 15.8124H10.1503C9.87242 15.8124 9.61569 15.6639 9.477 15.4231L9.01661 14.6238H14.8106ZM16.0994 12.3859L15.2876 13.7954H8.53954L7.72786 12.3859H16.0994ZM15.3175 10.1976L16.1007 11.5576H7.72656L8.50976 10.1976H15.3175ZM13.6769 8.12891C13.9548 8.12891 14.2115 8.27732 14.3502 8.51813L14.8404 9.36922H8.98682L9.477 8.51813C9.61569 8.27732 9.87242 8.12891 10.1503 8.12891H13.6769Z" fill="#00435B"/>
<path d="M5.01776 7.758C4.6271 5.86369 4.54326 4.41077 4.79578 3.35575C4.94597 2.72829 5.22054 2.21641 5.63806 1.8471C6.07884 1.4572 6.63613 1.26588 7.26231 1.26588C8.29531 1.26588 9.38125 1.73694 10.5418 2.63184C11.0151 2.99685 11.5064 3.43681 12.0166 3.95198C12.0572 3.8997 12.1031 3.85038 12.1543 3.80481C13.5968 2.51937 14.8112 1.72071 15.8499 1.41277C16.4675 1.22967 17.0474 1.21222 17.5754 1.38993C18.1328 1.57751 18.577 1.96526 18.8903 2.50838C19.4074 3.40473 19.5438 4.58253 19.351 6.03682C19.2724 6.6296 19.1381 7.27531 18.9483 7.97495C19.0199 7.98359 19.0917 7.99947 19.1627 8.02302C20.9929 8.62952 22.2889 9.28173 23.0735 10.0271C23.5403 10.4706 23.8451 10.9643 23.9553 11.5108C24.0716 12.0876 23.9582 12.6662 23.6452 13.2089C23.1291 14.104 22.18 14.8099 20.8279 15.369C20.285 15.5936 19.6707 15.7969 18.9844 15.9798C19.0157 16.0505 19.04 16.1256 19.0563 16.2043C19.4469 18.0986 19.5308 19.5516 19.2782 20.6066C19.1281 21.234 18.8535 21.7459 18.436 22.1152C17.9952 22.5051 17.4379 22.6964 16.8117 22.6964C15.7787 22.6964 14.6928 22.2254 13.5323 21.3305C13.0539 20.9616 12.5572 20.5161 12.0411 19.9939C11.988 20.0769 11.9228 20.1541 11.8457 20.2228C10.4032 21.5083 9.18881 22.3069 8.1501 22.6149C7.53248 22.798 6.95261 22.8154 6.42456 22.6377C5.86716 22.4501 5.42303 22.0624 5.10969 21.5193C4.59255 20.6229 4.45618 19.4451 4.64898 17.9908C4.7304 17.3766 4.8717 16.7056 5.07254 15.9766C4.99403 15.9687 4.91521 15.9521 4.83726 15.9262C3.00708 15.3197 1.71113 14.6675 0.926524 13.9222C0.459705 13.4787 0.154867 12.985 0.0446697 12.4385C-0.0716433 11.8616 0.0417709 11.283 0.354752 10.7403C0.870921 9.84527 1.82 9.13936 3.17209 8.58022C3.73118 8.34902 4.36594 8.14028 5.07713 7.95322C5.05179 7.89119 5.03178 7.82596 5.01776 7.758Z" fill="#002B3B"/>
<path d="M17.7794 16.3905C17.9614 16.3583 18.1358 16.475 18.1764 16.6539L18.1786 16.6645L18.198 16.7653C18.8271 20.0725 18.3839 21.726 16.8687 21.726C15.3861 21.726 13.4988 20.315 11.2069 17.493C11.1562 17.4307 11.1289 17.3526 11.1296 17.2723C11.1312 17.0852 11.2814 16.9341 11.4672 16.9301L11.4779 16.93L11.5986 16.9309C12.5631 16.9361 13.5007 16.9024 14.4115 16.83C15.4866 16.7444 16.6092 16.5979 17.7794 16.3905ZM7.37304 13.8906L7.37885 13.9004L7.43941 14.0061C7.92474 14.8499 8.43039 15.6507 8.95636 16.4086C9.57578 17.3012 10.2723 18.2048 11.0461 19.1194C11.1658 19.2609 11.1521 19.4709 11.0171 19.5958L11.0083 19.6036L10.9304 19.6706C8.37049 21.8641 6.70663 22.302 5.93885 20.9843C5.18731 19.6945 5.45978 17.3493 6.75627 13.9486C6.78476 13.8739 6.83831 13.8114 6.90776 13.7717C7.07009 13.6791 7.27589 13.7326 7.37304 13.8906ZM19.0784 9.0106L19.0889 9.01401L19.1853 9.04729C22.3451 10.1465 23.5456 11.3544 22.7868 12.6711C22.0446 13.9589 19.8871 14.8966 16.3142 15.484C16.2345 15.4971 16.1527 15.4819 16.0831 15.441C15.9187 15.3443 15.8638 15.1327 15.9604 14.9683C16.4722 14.0978 16.9331 13.2316 17.3431 12.3698C17.8082 11.3925 18.2446 10.3434 18.6524 9.22259C18.7142 9.05267 18.8959 8.96037 19.0679 9.00754L19.0784 9.0106ZM7.91685 8.45718C8.08126 8.55383 8.13619 8.76547 8.03953 8.92988C7.52779 9.80036 7.0669 10.6665 6.65684 11.5283C6.19179 12.5057 5.75537 13.5548 5.34757 14.6755C5.28448 14.8489 5.09665 14.9415 4.92155 14.8875L4.91106 14.8841L4.81471 14.8509C1.65489 13.7517 0.454387 12.5437 1.21321 11.227C1.95537 9.9392 4.1129 9.00158 7.68582 8.41412C7.76549 8.40102 7.84724 8.41626 7.91685 8.45718ZM18.0611 3.04335C18.8127 4.33315 18.5402 6.67838 17.2437 10.079C17.2152 10.1538 17.1617 10.2163 17.0922 10.2559C16.9299 10.3486 16.7241 10.2951 16.6269 10.137L16.6211 10.1272L16.5606 10.0215C16.0752 9.17774 15.5696 8.3769 15.0436 7.619C14.4242 6.72644 13.7276 5.82286 12.9539 4.90827C12.8342 4.76678 12.8479 4.55677 12.9829 4.43187L12.9917 4.42401L13.0696 4.35701C15.6295 2.16356 17.2934 1.72567 18.0611 3.04335ZM7.26082 2.25842C8.74337 2.25842 10.6306 3.66944 12.9226 6.49146C12.9733 6.55381 13.0006 6.63187 12.9999 6.71219C12.9982 6.8993 12.8481 7.05035 12.6623 7.05441L12.6515 7.05448L12.5308 7.05362C11.5664 7.04839 10.6287 7.08202 9.71799 7.15451C8.6429 7.24007 7.52026 7.38655 6.35007 7.59393C6.1681 7.62618 5.99372 7.50951 5.9531 7.33053L5.95086 7.31993L5.93147 7.2192C5.30242 3.91202 5.74554 2.25842 7.26082 2.25842Z" fill="#FF4154"/>
<path d="M13.3941 8.17212H10.4339C10.001 8.17212 9.60112 8.40367 9.38563 8.77915L7.89926 11.3691C7.68544 11.7416 7.68544 12.1997 7.89926 12.5723L9.38563 15.1622C9.60112 15.5377 10.001 15.7692 10.4339 15.7692H13.3941C13.8271 15.7692 14.2269 15.5377 14.4424 15.1622L15.9288 12.5723C16.1426 12.1997 16.1426 11.7416 15.9288 11.3691L14.4424 8.77915C14.2269 8.40367 13.8271 8.17212 13.3941 8.17212Z" fill="#FFD94C"/>
</g>
<defs>
<clipPath id="clip0_2318_2266">
<rect width="24" height="24" fill="white"/>
</clipPath>
</defs>
</svg>
